<?xml version="1.0" standalone="no"?>
<!DOCTYPE svg PUBLIC "-//W3C//DTD SVG 20010904//EN"
 "http://www.w3.org/TR/2001/REC-SVG-20010904/DTD/svg10.dtd">
<svg version="1.0" xmlns="http://www.w3.org/2000/svg"
 width="700.000000pt" height="700.000000pt" viewBox="0 0 700.000000 700.000000"
 preserveAspectRatio="xMidYMid meet">
<metadata>
Created by potrace 1.14, written by Peter Selinger 2001-2017
</metadata>
<g transform="translate(0.000000,700.000000) scale(0.100000,-0.100000)"
fill="#000000" stroke="none">
<path d="M934 4972 c4 -6 309 -803 371 -967 70 -187 106 -282 114 -300 5 -11
18 -45 29 -75 44 -118 84 -226 93 -245 5 -11 75 -193 155 -405 81 -212 174
-455 206 -540 33 -85 68 -178 78 -207 34 -96 10 -88 252 -87 243 2 228 1 228
14 0 6 50 142 111 303 62 161 122 319 134 352 13 33 42 110 65 170 24 61 49
126 56 146 23 64 244 643 254 664 4 11 36 94 70 185 34 91 79 210 100 265 90
233 224 586 251 658 l28 77 -198 0 -198 0 -45 -117 c-35 -89 -794 -2102 -846
-2243 -9 -25 -10 -24 -26 15 -10 22 -24 63 -33 90 -9 28 -19 55 -23 60 -4 6
-12 24 -18 40 -21 61 -73 201 -235 630 -91 242 -217 580 -281 750 -64 171
-121 319 -125 330 -12 28 -125 328 -147 393 l-19 52 -203 0 c-112 0 -201 -3
-198 -8z"/>
<path d="M3944 3563 l1 -1418 190 0 190 0 2 660 c0 363 1 667 2 675 1 13 84
15 688 14 379 -1 691 -2 695 -3 5 0 9 -304 10 -673 l3 -673 187 0 c159 0 187
2 190 15 2 8 3 645 2 1415 l0 1400 -192 3 -192 2 0 -580 c0 -457 -3 -580 -12
-581 -7 0 -320 -1 -695 -2 -599 -2 -682 0 -685 13 -2 8 -3 270 -3 583 l1 567
-192 0 -192 0 2 -1417z"/>
</g>
</svg>
