<?xml version="1.0" ?><svg viewBox="0 0 32 32" xmlns="http://www.w3.org/2000/svg"><title/><g id="Amazon"><path d="M26.49,30H5.5A3.35,3.35,0,0,1,3,29a3.35,3.35,0,0,1-1-2.48V5.5A3.35,3.35,0,0,1,3,3,3.35,3.35,0,0,1,5.5,2h21A3.35,3.35,0,0,1,29,3,3.35,3.35,0,0,1,30,5.5v21A3.52,3.52,0,0,1,26.49,30Zm-11-5.79a11.06,11.06,0,0,0,6.74-2.28.51.51,0,0,0,.23-.4.46.46,0,0,0-.51-.49l-.42.12a13.72,13.72,0,0,1-6,1.35,14.45,14.45,0,0,1-7.1-2.44l-.37-.14c-.26,0-.39.13-.4.4a.47.47,0,0,0,.17.34A11.5,11.5,0,0,0,15.47,24.21Zm-1.71-4.58a4.61,4.61,0,0,0,3.55-1.56,3.18,3.18,0,0,0,.58.83c.42.43.71.64.9.64a.73.73,0,0,0,.37-.16,8.39,8.39,0,0,0,.7-.6l.7-.62a.47.47,0,0,0,.23-.33.39.39,0,0,0-.1-.27.26.26,0,0,1-.09-.17,7.25,7.25,0,0,1-.47-.75,23.73,23.73,0,0,1-.22-4.75c0-2.92-1.45-4.38-4.37-4.38C13,7.65,11.5,8.74,11,10.8c0,.29.12.43.34.43l2,.27a1,1,0,0,0,.42-.43A1.67,1.67,0,0,1,15.4,9.76,1.28,1.28,0,0,1,16.84,11l0,1.2q-6.23,0-6.23,4.15a3.16,3.16,0,0,0,.92,2.47A3.21,3.21,0,0,0,13.76,19.63ZM15,17.54A1.35,1.35,0,0,1,13.73,16c0-1.42,1-2.13,3.16-2.13v.62a7.43,7.43,0,0,1,0,1.07,3.1,3.1,0,0,1-.42,1.13,1.64,1.64,0,0,1-1.12.82Zm7.92,5.26c.46,0,.84-.48,1.16-1.41a4.06,4.06,0,0,0,.25-1.32c0-.5-.44-.76-1.31-.76-1.43.11-2.17.42-2.23,1,0,.23.12.34.37.34l1.42-.16c.33,0,.5.08.5.16a2.64,2.64,0,0,1-.18.84c-.11.33-.2.57-.25.71a.94.94,0,0,0-.09.29A.32.32,0,0,0,22.93,22.8Z"/></g></svg>