<?xml version="1.0" ?><!DOCTYPE svg  PUBLIC '-//W3C//DTD SVG 1.1//EN'  'http://www.w3.org/Graphics/SVG/1.1/DTD/svg11.dtd'><svg enable-background="new 0 0 24 24" height="24px" id="Layer_1" version="1.1" viewBox="0 0 24 24" width="24px" xml:space="preserve" xmlns="http://www.w3.org/2000/svg" xmlns:xlink="http://www.w3.org/1999/xlink"><g><path d="M19.7,0.5H4.3c-2.1,0-3.8,1.7-3.8,3.8v15.4c0,2.1,1.7,3.8,3.8,3.8h15.4c2.1,0,3.8-1.7,3.8-3.8V4.3   C23.5,2.2,21.8,0.5,19.7,0.5z M5,14.2c0.1,0.1,0.2,0.2,0.1,0.4c0,0.2-0.3,0.5-0.5,0.5c-0.3,0-0.5-0.2-0.5-0.5L4,13.8   c0,0,0-0.1,0-0.1l0.1-0.8c0-0.2,0.3-0.5,0.5-0.5c0.3,0,0.5,0.2,0.5,0.5c0,0.2,0,0.3-0.1,0.4L5,13.7L5,14.2z M7,14.5   c0.1,0.1,0.2,0.2,0.2,0.4c0,0.3-0.3,0.5-0.6,0.5c-0.3,0-0.5-0.2-0.6-0.5L6,13.4l0.1-1.7c0-0.3,0.3-0.5,0.6-0.5   c0.3,0,0.5,0.2,0.6,0.5c0,0.2-0.1,0.3-0.2,0.4l-0.1,1.3L7,14.5z M9.2,14.5c0.2,0.1,0.3,0.3,0.3,0.5c0,0.3-0.3,0.6-0.6,0.6   c-0.3,0-0.6-0.3-0.6-0.6l-0.1-1.6l0.1-3.1c0-0.3,0.3-0.6,0.6-0.6c0.3,0,0.6,0.3,0.6,0.6c0,0.2-0.1,0.4-0.2,0.4l-0.1,2.6L9.2,14.5z    M11.5,14.4c0.2,0.1,0.4,0.2,0.3,0.5c0,0.4-0.3,0.7-0.6,0.7c-0.4,0-0.6-0.3-0.6-0.7l-0.1-1.5l0.1-3.2c0-0.4,0.3-0.6,0.6-0.6   c0.4,0,0.6,0.3,0.6,0.7c0,0.2-0.1,0.4-0.3,0.5l-0.1,2.7L11.5,14.4z M17.9,15.6l-4.5,0c-0.4,0-0.7-0.3-0.7-0.7V9.3   c0-0.2,0.1-0.5,0.5-0.7c0.4-0.2,0.8-0.2,1.2-0.2c1.6,0,2.9,1.1,3.3,2.7C18.9,11,20,12,20,13.3C20,14.6,19.1,15.6,17.9,15.6z"/></g></svg>