<?xml version="1.0" ?><!DOCTYPE svg  PUBLIC '-//W3C//DTD SVG 1.1//EN'  'http://www.w3.org/Graphics/SVG/1.1/DTD/svg11.dtd'><svg height="512px" style="enable-background:new 0 0 512 512;" version="1.1" viewBox="0 0 512 512" width="512px" xml:space="preserve" xmlns="http://www.w3.org/2000/svg" xmlns:xlink="http://www.w3.org/1999/xlink"><g id="_x33_5-spotify"><g><path d="M332.809,312.627c-44.57-31.337-117.142-33.392-165.695-22.156c-5.665,1.317-9.146,6.958-7.848,12.596    c1.302,5.636,6.988,9.159,12.59,7.837c44.172-10.291,109.584-8.761,148.91,18.869c1.828,1.296,3.927,1.903,6.023,1.903    c3.293,0,6.521-1.551,8.577-4.463C338.68,322.494,337.568,315.956,332.809,312.627z"/><path d="M353.424,271.671c-50.711-36.366-112.002-45.585-192.896-29.091c-5.665,1.154-9.334,6.708-8.161,12.366    c1.153,5.68,6.734,9.282,12.375,8.173c74.795-15.26,130.837-7.127,176.437,25.59c1.867,1.342,3.982,1.97,6.126,1.97    c3.269,0,6.479-1.528,8.51-4.38C359.193,281.604,358.121,275.045,353.424,271.671z"/><path d="M373.751,216.842c-63.616-43.11-159.53-43.573-221.427-21.715c-5.473,1.929-8.328,7.924-6.4,13.371    c1.934,5.473,7.933,8.305,13.389,6.415c56.901-20.122,144.805-19.93,202.629,19.28c1.805,1.216,3.86,1.808,5.893,1.808    c3.338,0,6.651-1.616,8.705-4.613C379.766,226.608,378.549,220.095,373.751,216.842z"/><path d="M376,16H136C69.726,16,16,69.726,16,136v240c0,66.274,53.726,120,120,120h240c66.274,0,120-53.726,120-120V136    C496,69.726,442.274,16,376,16z M258.393,420.522c-92.673,0-167.794-75.071-167.794-167.674s75.121-167.67,167.794-167.67    c92.667,0,167.793,75.067,167.793,167.67S351.06,420.522,258.393,420.522z"/></g></g><g id="Layer_1"/></svg>